<?xml version="1.0" standalone="no"?>
<!DOCTYPE svg PUBLIC "-//W3C//DTD SVG 20010904//EN"
 "http://www.w3.org/TR/2001/REC-SVG-20010904/DTD/svg10.dtd">
<svg version="1.0" xmlns="http://www.w3.org/2000/svg"
 width="1024.000000pt" height="1024.000000pt" viewBox="0 0 1024.000000 1024.000000"
 preserveAspectRatio="xMidYMid meet">

<g transform="translate(0.000000,1024.000000) scale(0.100000,-0.100000)"
fill="#000000" stroke="none">
<path d="M2649 8450 c-510 -46 -911 -441 -969 -955 -14 -128 -14 -4623 1
-4752 50 -447 360 -806 804 -930 l100 -28 2495 0 c2401 0 2498 1 2575 19 408
95 722 413 816 825 29 128 31 261 22 2258 l-8 1812 -140 -132 c-196 -184
-1043 -982 -1580 -1487 -687 -648 -1331 -1258 -1625 -1539 -390 -375 -473
-447 -537 -471 -66 -24 -152 -26 -218 -3 -62 21 -145 99 -1295 1222 -875 855
-813 786 -814 911 0 103 26 141 246 351 116 111 204 187 231 199 57 26 157 26
216 0 54 -25 67 -36 331 -289 118 -114 321 -308 450 -431 129 -124 349 -335
488 -468 l252 -244 157 148 c496 468 1213 1149 1548 1469 116 111 377 358 580
550 204 192 417 394 475 449 154 149 913 862 997 937 39 35 71 68 72 73 2 18
-102 146 -175 216 -180 171 -392 267 -639 290 -120 11 -4731 11 -4856 0z"/>
</g>
</svg>
